<?xml version="1.0" encoding="utf-8"?>
<!-- Generator: Adobe Illustrator 18.0.0, SVG Export Plug-In . SVG Version: 6.00 Build 0)  -->
<!DOCTYPE svg PUBLIC "-//W3C//DTD SVG 1.1//EN" "http://www.w3.org/Graphics/SVG/1.1/DTD/svg11.dtd">
<svg version="1.1" id="Layer_1" xmlns="http://www.w3.org/2000/svg" xmlns:xlink="http://www.w3.org/1999/xlink" x="0px" y="0px"
	 viewBox="0 0 246 41" enable-background="new 0 0 246 41" xml:space="preserve">
<path fill-rule="evenodd" clip-rule="evenodd" fill="#005DAA" d="M25.4,15.5c-0.8-3.6-1-4.2-1.5-7c-0.6,0.1-1.2,0.2-1.8,0.2
	c-0.5,0-0.8,0-1.5-0.2c-1.9,3.7-2.3,4.1-5.7,10L11,25.4c-2.6,4.5-5.3,8.8-8,13.2c0.8-0.1,1.7-0.2,2.2-0.2c0.8,0,1.4,0.1,1.9,0.2
	c1.5-3.1,3.1-6.2,4.8-9.1c1.9,0,3.7,0,5.6,0c1.6,0,3.2,0,4.8,0c0.8,3,1.1,6.1,1.3,9.1c1.2-0.1,2.7-0.2,3.6-0.2
	c1.2,0,2.4,0.1,3.6,0.2c-0.7-2.2-0.9-3-1.5-5.6l-1.2-5.1L25.4,15.5L25.4,15.5L25.4,15.5z M19.6,16.6l1.2,5.3l1,5c-1.6,0-3.1,0-4.6,0
	c-1.5,0-2.1,0-3.8,0L19.6,16.6L19.6,16.6L19.6,16.6z"/>
<path fill-rule="evenodd" clip-rule="evenodd" fill="#005DAA" d="M39.6,19.4l0.1-2c0.4,0,0.6,0,0.9,0c1.3,0,2.9,0.1,5.3,0.5
	c-0.1-0.6-0.1-0.8-0.1-1.3c0-0.5,0-1,0.1-1.7c-3.2,0.1-6.3,0.3-9.6,0.3c-2.8,0-5.5-0.1-8.3-0.3c0.2,0.6,0.2,0.8,0.2,1.5
	c0,0.5,0,0.8-0.2,1.6c2.1-0.3,4.2-0.4,6.3-0.4c0.1,1.5,0.1,2.9,0.1,4.4l0,5.5c0,3.7-0.2,7.4-0.4,11.1c1.1-0.1,1.5-0.2,2.5-0.2
	c1.2,0,1.8,0,3.1,0.2c-0.2-3.7-0.2-9.4-0.2-11L39.6,19.4L39.6,19.4L39.6,19.4z"/>
<path fill-rule="evenodd" clip-rule="evenodd" fill="#005DAA" d="M57.6,19.5c0.4-1.7,0.6-2.3,1.1-3.4c-1.8-1.2-3.3-1.6-5.7-1.6
	c-4.7,0-7.8,2.8-7.8,7.1c0,7.6,10.2,6.7,10.2,11.7c0,2-1.7,3.5-4.1,3.5c-2.6,0-4.4-1.4-4.8-3.8h-0.7c-0.2,1.3-0.6,2.9-1,4.3
	c2,1.1,3.5,1.5,5.7,1.5c5.6,0,9.1-3,9.1-7.7c0-7.6-10.3-6.6-10.3-11.6c0-1.8,1.6-3.1,3.7-3.1c1.9,0,3.4,1.1,4,3H57.6L57.6,19.5
	L57.6,19.5z"/>
<path fill-rule="evenodd" clip-rule="evenodd" fill="#005DAA" d="M60.9,38.4c1.3-0.1,1.8-0.2,3.2-0.2c2.2,0,4.4,0.2,6.6,0.2
	c7.3,0,12.8-5,12.8-12.4c0-3.7-1.5-7.2-4.1-9.1c-2.1-1.5-4.4-2.1-8.8-2.1c-2.3,0-4.6,0.2-6.9,0.2c-1,0-1.4,0-2.7-0.2
	c0.2,4.3,0.3,5.9,0.3,11C61.2,26.2,61.2,32.3,60.9,38.4L60.9,38.4L60.9,38.4z M76.7,31.9c-1.4,3.1-3.8,4.6-7.9,4.6
	c-1,0-1.4,0-2.5-0.1c0-3-0.1-6-0.1-9.1c0-3.4,0-6.8,0.2-10.3c1.4-0.1,2.1-0.2,2.9-0.2c2,0,3.5,0.3,4.6,0.9c2.5,1.3,3.9,4.4,3.9,8.6
	C77.8,28.7,77.3,30.5,76.7,31.9L76.7,31.9L76.7,31.9z"/>
<path fill-rule="evenodd" clip-rule="evenodd" fill="#005DAA" d="M84.8,33.8c0,1.6-0.1,2.4-0.3,4.6c1.2-0.1,1.6-0.1,2.7-0.1
	c1.2,0,1.7,0,2.9,0.2c-0.1-2-0.2-2.7-0.2-3.7l-0.1-3.5c0-1.1,0-2.1,0-3.2c0-0.3,0.1-0.4,0.2-0.4c0.1,0,0.1,0,0.4,0.5
	c2,3.4,4,6.9,5.9,10.4c1.2-0.1,1.7-0.1,2.8-0.1c1.1,0,1.7,0,3.5,0.1l-1.5-2.5l-3.1-4.8c-1.5-2.4-1.8-2.9-2.8-4.4
	c3.1-0.8,5.5-2.6,5.5-6.1c0-4.5-3.6-5.9-7.4-5.9c-1.8,0-3.7,0.2-5.5,0.2c-0.7,0-1.2,0-3.1-0.2c0.2,3.6,0.2,5.5,0.2,9.1
	C84.8,31.2,84.8,33.4,84.8,33.8L84.8,33.8L84.8,33.8z M89.7,26.1c0.1-3.1,0-6.2,0.1-9.3c0.6,0,0.8,0,1.1,0c2.9,0,4.3,1.4,4.3,4.3
	C95.2,24.8,93.2,26.1,89.7,26.1L89.7,26.1L89.7,26.1z"/>
<g>
	<path d="M107.8,20.3h0.8l3.2,7.4H111l-1.1-2.5h-3.4l-1.1,2.5h-0.8L107.8,20.3z M108.2,21.1l-1.4,3.4h2.9L108.2,21.1z"/>
	<path d="M112.4,24.9c0-0.6,0.1-1.1,0.4-1.5c0.3-0.4,0.6-0.8,1-1c0.4-0.2,0.8-0.4,1.3-0.4c0.3,0,0.7,0,1,0.1
		c0.3,0.1,0.6,0.2,0.8,0.4c0.2,0.2,0.4,0.4,0.5,0.6v-1.1h0.7v5c0,0.4-0.1,0.8-0.2,1.1c-0.1,0.3-0.3,0.6-0.6,0.8s-0.5,0.4-0.9,0.5
		c-0.3,0.1-0.7,0.2-1,0.2c-0.3,0-0.6,0-0.9-0.1s-0.6-0.2-0.8-0.4s-0.5-0.4-0.7-0.6s-0.3-0.5-0.4-0.8h0.7c0.2,0.4,0.5,0.7,0.8,1
		c0.4,0.2,0.8,0.3,1.2,0.3c0.4,0,0.7-0.1,1-0.2c0.3-0.1,0.6-0.4,0.7-0.7c0.2-0.3,0.3-0.6,0.3-1v-0.6c-0.4,0.8-1.1,1.2-2.1,1.2
		c-0.3,0-0.7-0.1-1-0.2c-0.3-0.1-0.6-0.3-0.9-0.6c-0.3-0.2-0.5-0.6-0.7-0.9S112.4,25.4,112.4,24.9z M113.1,24.8
		c0,0.5,0.1,0.9,0.3,1.2c0.2,0.3,0.4,0.6,0.8,0.8c0.3,0.2,0.7,0.3,1,0.3c0.3,0,0.6-0.1,1-0.2c0.3-0.2,0.6-0.4,0.8-0.7
		c0.2-0.3,0.3-0.8,0.3-1.3c0-0.3-0.1-0.5-0.2-0.8c-0.1-0.2-0.3-0.5-0.5-0.7c-0.2-0.2-0.4-0.3-0.7-0.5c-0.3-0.1-0.6-0.2-0.9-0.2
		c-0.5,0-0.9,0.2-1.2,0.4c-0.3,0.3-0.5,0.5-0.6,0.9S113.1,24.6,113.1,24.8z"/>
	<path d="M119.1,24.9c0-0.4,0.1-0.8,0.3-1.2c0.2-0.3,0.4-0.6,0.6-0.9c0.3-0.2,0.6-0.4,0.9-0.6c0.3-0.1,0.7-0.2,1-0.2
		c0.5,0,0.9,0.1,1.4,0.3c0.4,0.2,0.8,0.6,1.1,1s0.4,1,0.4,1.6v0.1h-4.9c0,0.4,0.2,0.8,0.4,1c0.2,0.3,0.5,0.5,0.8,0.6
		c0.3,0.1,0.6,0.2,0.9,0.2c0.3,0,0.5-0.1,0.8-0.2c0.3-0.1,0.5-0.3,0.7-0.4c0.2-0.2,0.4-0.4,0.4-0.6h0.8c-0.2,0.4-0.4,0.8-0.7,1.1
		c-0.3,0.3-0.6,0.5-1,0.6c-0.4,0.1-0.7,0.2-1.1,0.2c-0.5,0-0.9-0.1-1.4-0.4c-0.4-0.2-0.8-0.6-1-1C119.2,26,119.1,25.5,119.1,24.9z
		 M124.1,24.5c-0.1-0.3-0.2-0.6-0.4-0.9c-0.2-0.3-0.4-0.5-0.7-0.6c-0.3-0.2-0.6-0.2-1-0.2c-0.5,0-0.9,0.1-1.2,0.3
		c-0.3,0.2-0.5,0.5-0.7,0.7s-0.2,0.5-0.3,0.7H124.1z"/>
	<path d="M125.8,27.7v-5.5h0.7V23c0.2-0.3,0.4-0.5,0.7-0.7c0.3-0.2,0.6-0.2,1-0.2c0.3,0,0.6,0.1,0.9,0.2c0.3,0.1,0.5,0.3,0.8,0.5
		c0.2,0.2,0.4,0.5,0.5,0.8c0.1,0.3,0.2,0.7,0.2,1.1v3.1h-0.7v-3.1c0-0.4-0.1-0.7-0.2-1c-0.2-0.3-0.4-0.5-0.6-0.6
		c-0.3-0.1-0.5-0.2-0.8-0.2c-0.3,0-0.6,0.1-0.8,0.2c-0.3,0.1-0.5,0.3-0.6,0.6s-0.2,0.6-0.2,0.9v3.2H125.8z"/>
	<path d="M131.7,24.9c0-0.4,0.1-0.8,0.2-1.2s0.4-0.7,0.6-0.9c0.3-0.2,0.6-0.4,0.9-0.6s0.7-0.2,1-0.2c0.6,0,1.2,0.1,1.7,0.4
		s0.9,0.7,1.1,1.3h-0.8c-0.2-0.3-0.5-0.6-0.8-0.8s-0.7-0.3-1.2-0.3c-0.4,0-0.8,0.1-1.1,0.3s-0.6,0.5-0.7,0.8c-0.2,0.3-0.3,0.7-0.3,1
		c0,0.4,0.1,0.7,0.3,1.1c0.2,0.3,0.4,0.6,0.8,0.8c0.3,0.2,0.7,0.3,1.1,0.3c0.4,0,0.8-0.1,1.2-0.3s0.6-0.4,0.8-0.7h0.8
		c-0.6,1.1-1.5,1.7-2.7,1.7c-0.4,0-0.7-0.1-1.1-0.2s-0.7-0.3-0.9-0.6s-0.5-0.6-0.7-0.9S131.7,25.4,131.7,24.9
		C131.7,25,131.7,25,131.7,24.9C131.7,24.9,131.7,24.9,131.7,24.9z"/>
	<path d="M139.9,27.5l-2.1-5.3h0.8l1.8,4.4l1.9-4.4h0.8l-3.2,7.4H139L139.9,27.5z"/>
	<path d="M146.9,27.7v-4.8H146v-0.7h0.8c0-1.3,0.7-1.9,2.1-1.9V21c-0.4,0-0.8,0.1-1,0.3c-0.3,0.2-0.4,0.5-0.4,0.9c0,0,0,0.1,0,0.1
		h1.4v0.7h-1.4v4.8H146.9z"/>
	<path d="M149.4,24.9c0-0.4,0.1-0.7,0.2-1c0.1-0.3,0.4-0.6,0.6-0.9c0.3-0.3,0.6-0.5,0.9-0.6c0.4-0.1,0.8-0.2,1.2-0.2
		c0.4,0,0.8,0.1,1.2,0.3s0.8,0.5,1.1,0.9c0.3,0.4,0.4,0.8,0.5,1.3c0,0,0,0.1,0,0.1c0,0,0,0.1,0,0.1c0,0.4-0.1,0.8-0.2,1.1
		c-0.2,0.4-0.4,0.7-0.6,0.9c-0.3,0.3-0.6,0.5-0.9,0.6s-0.7,0.2-1.1,0.2c-0.5,0-0.9-0.1-1.4-0.3c-0.4-0.2-0.8-0.6-1.1-1
		C149.5,26,149.4,25.5,149.4,24.9z M150.1,24.9c0,0.4,0.1,0.8,0.3,1.1c0.2,0.3,0.5,0.6,0.8,0.8c0.3,0.2,0.7,0.3,1.1,0.3
		c0.3,0,0.6-0.1,1-0.3s0.6-0.4,0.8-0.8s0.3-0.7,0.3-1.2c0-0.3-0.1-0.5-0.2-0.8c-0.1-0.3-0.3-0.5-0.5-0.7c-0.2-0.2-0.4-0.4-0.7-0.5
		c-0.3-0.1-0.5-0.2-0.8-0.2c-0.4,0-0.7,0.1-1,0.3c-0.3,0.2-0.6,0.4-0.8,0.7C150.2,24.1,150.1,24.5,150.1,24.9z"/>
	<path d="M156.2,27.7v-5.5h0.7V23c0.3-0.6,0.8-0.9,1.6-0.9v0.7c-0.2,0-0.4,0-0.5,0.1s-0.4,0.2-0.5,0.3c-0.2,0.1-0.3,0.3-0.4,0.5
		s-0.1,0.4-0.1,0.6v3.4H156.2z"/>
	<path d="M163.1,27.7v-6.7h-1.7v-0.7h4.1v0.7h-1.7v6.7H163.1z"/>
	<path d="M165.5,24.9c0-0.4,0.1-0.7,0.2-1c0.1-0.3,0.4-0.6,0.6-0.9c0.3-0.3,0.6-0.5,0.9-0.6c0.4-0.1,0.8-0.2,1.2-0.2
		c0.4,0,0.8,0.1,1.2,0.3s0.8,0.5,1.1,0.9c0.3,0.4,0.4,0.8,0.5,1.3c0,0,0,0.1,0,0.1c0,0,0,0.1,0,0.1c0,0.4-0.1,0.8-0.2,1.1
		c-0.2,0.4-0.4,0.7-0.6,0.9c-0.3,0.3-0.6,0.5-0.9,0.6s-0.7,0.2-1.1,0.2c-0.5,0-0.9-0.1-1.4-0.3c-0.4-0.2-0.8-0.6-1.1-1
		C165.6,26,165.5,25.5,165.5,24.9z M166.2,24.9c0,0.4,0.1,0.8,0.3,1.1c0.2,0.3,0.5,0.6,0.8,0.8c0.3,0.2,0.7,0.3,1.1,0.3
		c0.3,0,0.6-0.1,1-0.3s0.6-0.4,0.8-0.8s0.3-0.7,0.3-1.2c0-0.3-0.1-0.5-0.2-0.8c-0.1-0.3-0.3-0.5-0.5-0.7c-0.2-0.2-0.4-0.4-0.7-0.5
		c-0.3-0.1-0.5-0.2-0.8-0.2c-0.4,0-0.7,0.1-1,0.3c-0.3,0.2-0.6,0.4-0.8,0.7C166.3,24.1,166.2,24.5,166.2,24.9z"/>
	<path d="M171.7,27.7l1.9-2.8l-1.9-2.7h0.9l1.4,2.1l1.5-2.1h0.9l-1.9,2.7l1.9,2.8h-0.9l-1.5-2.2l-1.4,2.2H171.7z"/>
	<path d="M177,21.6v-1.3h0.7v1.3H177z M177,27.7v-5.5h0.7v5.5H177z"/>
	<path d="M178.8,24.9c0-0.4,0.1-0.8,0.2-1.2s0.4-0.7,0.6-0.9c0.3-0.2,0.6-0.4,0.9-0.6s0.7-0.2,1-0.2c0.6,0,1.2,0.1,1.7,0.4
		s0.9,0.7,1.1,1.3h-0.8c-0.2-0.3-0.5-0.6-0.8-0.8s-0.7-0.3-1.2-0.3c-0.4,0-0.8,0.1-1.1,0.3s-0.6,0.5-0.7,0.8c-0.2,0.3-0.3,0.7-0.3,1
		c0,0.4,0.1,0.7,0.3,1.1c0.2,0.3,0.4,0.6,0.8,0.8c0.3,0.2,0.7,0.3,1.1,0.3c0.4,0,0.8-0.1,1.2-0.3s0.6-0.4,0.8-0.7h0.8
		c-0.6,1.1-1.5,1.7-2.7,1.7c-0.4,0-0.7-0.1-1.1-0.2s-0.7-0.3-0.9-0.6s-0.5-0.6-0.7-0.9S178.8,25.4,178.8,24.9
		C178.8,25,178.8,25,178.8,24.9C178.8,24.9,178.8,24.9,178.8,24.9z"/>
	<path d="M188.7,25.6c0,0.3,0.1,0.6,0.2,0.8c0.1,0.2,0.3,0.4,0.6,0.5s0.5,0.2,0.7,0.2c0.2,0,0.5-0.1,0.7-0.2
		c0.2-0.1,0.4-0.3,0.5-0.5s0.2-0.5,0.2-0.7c0-0.3-0.1-0.6-0.2-0.8c-0.1-0.2-0.4-0.4-0.8-0.6c-0.4-0.1-0.8-0.3-1.2-0.4
		c-0.4-0.1-0.7-0.3-1-0.6c-0.2-0.3-0.4-0.6-0.4-1.1c0,0,0-0.1,0-0.1s0-0.1,0-0.1c0-0.4,0.1-0.7,0.3-0.9c0.2-0.3,0.4-0.5,0.8-0.6
		c0.3-0.1,0.6-0.2,1-0.2c0.4,0,0.8,0.1,1.1,0.3c0.3,0.2,0.6,0.4,0.7,0.7c0.2,0.3,0.3,0.6,0.3,0.9v0.1h-0.7c-0.1-0.4-0.2-0.7-0.4-0.9
		s-0.5-0.3-0.9-0.4c-0.2,0-0.4,0.1-0.6,0.2c-0.2,0.1-0.4,0.2-0.5,0.4c-0.1,0.2-0.2,0.4-0.2,0.6c0,0.5,0.1,0.8,0.4,1
		c0.2,0.2,0.6,0.3,1.2,0.5c0.5,0.2,1,0.3,1.3,0.6s0.6,0.6,0.7,1.1c0,0.2,0,0.4,0,0.5c0,0.3,0,0.5-0.1,0.8c-0.1,0.3-0.2,0.5-0.4,0.7
		c-0.2,0.2-0.4,0.4-0.7,0.5c-0.3,0.1-0.6,0.2-1,0.2c-0.3,0-0.7-0.1-1-0.2s-0.5-0.3-0.7-0.5c-0.2-0.2-0.4-0.4-0.5-0.7
		c-0.1-0.3-0.2-0.5-0.2-0.8H188.7z"/>
	<path d="M193.2,25.5v-3.3h0.7v3.2c0,0.5,0.2,1,0.5,1.3c0.3,0.3,0.7,0.5,1.2,0.5c0.3,0,0.6-0.1,0.8-0.2s0.5-0.4,0.6-0.7
		c0.2-0.3,0.2-0.6,0.2-1v-3h0.7v5.5h-0.7v-0.9c-0.2,0.3-0.4,0.6-0.7,0.7c-0.3,0.2-0.7,0.3-1.1,0.3c-0.4,0-0.8-0.1-1.1-0.3
		c-0.4-0.2-0.7-0.4-0.9-0.8C193.4,26.4,193.2,26,193.2,25.5z"/>
	<path d="M199.3,27.7v-7.4h0.8v3c0.2-0.3,0.5-0.6,0.8-0.8c0.4-0.2,0.8-0.3,1.2-0.4c0.6,0,1.1,0.1,1.5,0.4c0.4,0.3,0.8,0.6,1,1
		c0.3,0.4,0.4,0.8,0.4,1.3c0,0.5-0.1,1-0.3,1.5c-0.2,0.5-0.5,0.8-1,1.1c-0.4,0.3-0.9,0.4-1.5,0.5c-0.3,0-0.7,0-1-0.1
		c-0.3-0.1-0.6-0.2-0.8-0.4c-0.2-0.2-0.4-0.4-0.6-0.6v1H199.3z M200,24.8c0,0.3,0,0.6,0.1,0.9c0.1,0.3,0.2,0.5,0.4,0.7
		c0.2,0.2,0.4,0.4,0.7,0.5c0.3,0.1,0.6,0.2,1,0.2c0.4,0,0.7-0.1,1-0.3s0.6-0.5,0.8-0.8c0.2-0.3,0.3-0.7,0.3-1.2
		c0-0.3-0.1-0.5-0.2-0.8s-0.3-0.5-0.5-0.7c-0.2-0.2-0.4-0.3-0.7-0.4c-0.3-0.1-0.5-0.2-0.8-0.2c-0.3,0-0.6,0.1-0.9,0.2
		s-0.6,0.4-0.9,0.7C200.1,24,200,24.4,200,24.8z"/>
	<path d="M205.9,23.8c0-0.1,0-0.1,0-0.2c0-0.3,0.1-0.6,0.2-0.8c0.2-0.2,0.4-0.4,0.6-0.5c0.2-0.1,0.5-0.2,0.7-0.2
		c0.2,0,0.4,0,0.5,0.1c0.2,0.1,0.3,0.2,0.5,0.3c0.2,0.1,0.3,0.3,0.4,0.5c0.1,0.2,0.1,0.4,0.2,0.6h-0.7c0-0.3-0.1-0.5-0.3-0.6
		s-0.3-0.2-0.6-0.2c-0.2,0-0.4,0.1-0.5,0.2c-0.2,0.1-0.3,0.3-0.3,0.6c0,0,0,0,0,0.1c0,0.1,0,0.1,0,0.1c0,0.2,0.2,0.3,0.5,0.5
		s0.6,0.2,0.9,0.3c0.3,0.1,0.5,0.3,0.8,0.5c0.2,0.2,0.3,0.5,0.3,0.9c0,0.1,0,0.2,0,0.3c0,0.3-0.2,0.6-0.3,0.8
		c-0.2,0.2-0.4,0.4-0.6,0.5s-0.5,0.1-0.7,0.1c-0.3,0-0.6-0.1-0.9-0.2c-0.3-0.2-0.5-0.4-0.6-0.6c-0.1-0.3-0.2-0.6-0.2-0.9l0.7,0
		c0,0.3,0.1,0.6,0.3,0.8c0.2,0.2,0.4,0.3,0.7,0.3c0.3,0,0.5-0.1,0.7-0.3c0.2-0.2,0.3-0.4,0.3-0.6c0-0.2-0.1-0.4-0.2-0.6
		c-0.1-0.2-0.4-0.3-0.7-0.4c-0.4-0.1-0.8-0.3-1.1-0.5C206.1,24.5,205.9,24.2,205.9,23.8z"/>
	<path d="M210.7,27.7v-4.8h-1.2v-0.7h1.2v-1.9h0.7v1.9h1.3v0.7h-1.3v4.8H210.7z"/>
	<path d="M213.2,25c0-0.4,0.1-0.8,0.3-1.2c0.2-0.4,0.4-0.7,0.7-0.9s0.6-0.4,0.9-0.6c0.3-0.1,0.7-0.2,1.1-0.2c1,0,1.7,0.4,2.2,1.2
		v-1.1h0.7v5.5h-0.7v-1c-0.2,0.4-0.5,0.7-0.9,0.9c-0.4,0.2-0.8,0.3-1.3,0.3c-0.4,0-0.7-0.1-1.1-0.2c-0.3-0.1-0.7-0.3-0.9-0.6
		c-0.3-0.2-0.5-0.5-0.6-0.9C213.3,25.8,213.2,25.4,213.2,25z M214,24.8c0,0.4,0.1,0.8,0.3,1.2c0.2,0.3,0.5,0.6,0.8,0.8
		c0.3,0.2,0.7,0.3,1,0.3c0.4,0,0.8-0.1,1.1-0.3c0.3-0.2,0.6-0.5,0.8-0.8s0.3-0.7,0.3-1c0-0.4-0.1-0.7-0.3-1.1s-0.4-0.6-0.8-0.8
		c-0.3-0.2-0.7-0.3-1.1-0.3c-0.4,0-0.8,0.1-1.1,0.3c-0.3,0.2-0.6,0.5-0.8,0.8C214,24.2,214,24.5,214,24.8z"/>
	<path d="M220.3,27.7v-5.5h0.7V23c0.2-0.3,0.4-0.5,0.7-0.7c0.3-0.2,0.6-0.2,1-0.2c0.3,0,0.6,0.1,0.9,0.2c0.3,0.1,0.5,0.3,0.8,0.5
		c0.2,0.2,0.4,0.5,0.5,0.8c0.1,0.3,0.2,0.7,0.2,1.1v3.1h-0.7v-3.1c0-0.4-0.1-0.7-0.2-1c-0.2-0.3-0.4-0.5-0.6-0.6
		c-0.3-0.1-0.5-0.2-0.8-0.2c-0.3,0-0.6,0.1-0.8,0.2c-0.3,0.1-0.5,0.3-0.6,0.6s-0.2,0.6-0.2,0.9v3.2H220.3z"/>
	<path d="M226.1,24.9c0-0.4,0.1-0.8,0.2-1.2s0.4-0.7,0.6-0.9c0.3-0.2,0.6-0.4,0.9-0.6s0.7-0.2,1-0.2c0.6,0,1.2,0.1,1.7,0.4
		s0.9,0.7,1.1,1.3H231c-0.2-0.3-0.5-0.6-0.8-0.8s-0.7-0.3-1.2-0.3c-0.4,0-0.8,0.1-1.1,0.3s-0.6,0.5-0.7,0.8c-0.2,0.3-0.3,0.7-0.3,1
		c0,0.4,0.1,0.7,0.3,1.1c0.2,0.3,0.4,0.6,0.8,0.8c0.3,0.2,0.7,0.3,1.1,0.3c0.4,0,0.8-0.1,1.2-0.3s0.6-0.4,0.8-0.7h0.8
		c-0.6,1.1-1.5,1.7-2.7,1.7c-0.4,0-0.7-0.1-1.1-0.2s-0.7-0.3-0.9-0.6s-0.5-0.6-0.7-0.9S226.1,25.4,226.1,24.9
		C226.1,25,226.1,25,226.1,24.9C226.1,24.9,226.1,24.9,226.1,24.9z"/>
	<path d="M232.6,24.9c0-0.4,0.1-0.8,0.3-1.2c0.2-0.3,0.4-0.6,0.6-0.9c0.3-0.2,0.6-0.4,0.9-0.6c0.3-0.1,0.7-0.2,1-0.2
		c0.5,0,0.9,0.1,1.4,0.3c0.4,0.2,0.8,0.6,1.1,1s0.4,1,0.4,1.6v0.1h-4.9c0,0.4,0.2,0.8,0.4,1c0.2,0.3,0.5,0.5,0.8,0.6
		c0.3,0.1,0.6,0.2,0.9,0.2c0.3,0,0.5-0.1,0.8-0.2c0.3-0.1,0.5-0.3,0.7-0.4c0.2-0.2,0.4-0.4,0.4-0.6h0.8c-0.2,0.4-0.4,0.8-0.7,1.1
		c-0.3,0.3-0.6,0.5-1,0.6c-0.4,0.1-0.7,0.2-1.1,0.2c-0.5,0-0.9-0.1-1.4-0.4s-0.8-0.6-1-1C232.7,26,232.6,25.5,232.6,24.9z
		 M237.6,24.5c-0.1-0.3-0.2-0.6-0.4-0.9c-0.2-0.3-0.4-0.5-0.7-0.6c-0.3-0.2-0.6-0.2-1-0.2c-0.5,0-0.9,0.1-1.2,0.3
		c-0.3,0.2-0.5,0.5-0.7,0.7s-0.2,0.5-0.3,0.7H237.6z"/>
	<path d="M239.1,23.8c0-0.1,0-0.1,0-0.2c0-0.3,0.1-0.6,0.2-0.8c0.2-0.2,0.4-0.4,0.6-0.5c0.2-0.1,0.5-0.2,0.7-0.2
		c0.2,0,0.4,0,0.5,0.1c0.2,0.1,0.3,0.2,0.5,0.3c0.2,0.1,0.3,0.3,0.4,0.5c0.1,0.2,0.1,0.4,0.2,0.6h-0.7c0-0.3-0.1-0.5-0.3-0.6
		s-0.3-0.2-0.6-0.2c-0.2,0-0.4,0.1-0.5,0.2c-0.2,0.1-0.3,0.3-0.3,0.6c0,0,0,0,0,0.1c0,0.1,0,0.1,0,0.1c0,0.2,0.2,0.3,0.5,0.5
		s0.6,0.2,0.9,0.3c0.3,0.1,0.5,0.3,0.8,0.5c0.2,0.2,0.3,0.5,0.3,0.9c0,0.1,0,0.2,0,0.3c0,0.3-0.2,0.6-0.3,0.8
		c-0.2,0.2-0.4,0.4-0.6,0.5s-0.5,0.1-0.7,0.1c-0.3,0-0.6-0.1-0.9-0.2c-0.3-0.2-0.5-0.4-0.6-0.6c-0.1-0.3-0.2-0.6-0.2-0.9l0.7,0
		c0,0.3,0.1,0.6,0.3,0.8c0.2,0.2,0.4,0.3,0.7,0.3c0.3,0,0.5-0.1,0.7-0.3c0.2-0.2,0.3-0.4,0.3-0.6c0-0.2-0.1-0.4-0.2-0.6
		c-0.1-0.2-0.4-0.3-0.7-0.4c-0.4-0.1-0.8-0.3-1.1-0.5C239.3,24.5,239.1,24.2,239.1,23.8z"/>
	<path d="M104.9,36c0-0.4,0.1-0.8,0.3-1.2c0.2-0.4,0.4-0.7,0.7-0.9c0.3-0.3,0.6-0.4,0.9-0.6c0.3-0.1,0.7-0.2,1.1-0.2
		c1,0,1.7,0.4,2.2,1.2v-1.1h0.7v5.5H110v-1c-0.2,0.4-0.5,0.7-0.9,0.9c-0.4,0.2-0.8,0.3-1.3,0.3c-0.4,0-0.7-0.1-1.1-0.2
		c-0.3-0.1-0.7-0.3-0.9-0.6c-0.3-0.2-0.5-0.5-0.6-0.9C105,36.8,104.9,36.4,104.9,36z M105.7,35.8c0,0.4,0.1,0.8,0.3,1.2
		c0.2,0.3,0.5,0.6,0.8,0.8s0.7,0.3,1,0.3c0.4,0,0.8-0.1,1.1-0.3s0.6-0.5,0.8-0.8c0.2-0.3,0.3-0.7,0.3-1c0-0.4-0.1-0.7-0.3-1.1
		c-0.2-0.3-0.4-0.6-0.8-0.8c-0.3-0.2-0.7-0.3-1.1-0.3c-0.4,0-0.8,0.1-1.1,0.3s-0.6,0.5-0.8,0.8C105.8,35.2,105.7,35.5,105.7,35.8z"
		/>
	<path d="M112,38.7v-5.5h0.7V34c0.2-0.3,0.4-0.5,0.7-0.7s0.6-0.2,1-0.2c0.3,0,0.6,0.1,0.9,0.2s0.5,0.3,0.8,0.5s0.4,0.5,0.5,0.8
		c0.1,0.3,0.2,0.7,0.2,1.1v3.1h-0.7v-3.1c0-0.4-0.1-0.7-0.2-1c-0.2-0.3-0.4-0.5-0.6-0.6c-0.3-0.1-0.5-0.2-0.8-0.2
		c-0.3,0-0.6,0.1-0.8,0.2s-0.5,0.3-0.6,0.6c-0.2,0.3-0.2,0.6-0.2,0.9v3.2H112z"/>
	<path d="M117.9,35.7c0-0.5,0.2-1,0.5-1.4c0.3-0.4,0.6-0.7,1-0.9c0.4-0.2,0.8-0.3,1.3-0.3c0.5,0,0.9,0.1,1.3,0.3
		c0.4,0.2,0.7,0.5,1,0.8v-2.9h0.7v7.4H123v-1c-0.3,0.4-0.6,0.7-0.9,0.9c-0.4,0.2-0.8,0.3-1.3,0.3c-0.4,0-0.9-0.2-1.3-0.4
		s-0.8-0.6-1.1-1c-0.3-0.4-0.4-0.9-0.4-1.5C117.9,35.8,117.9,35.7,117.9,35.7z M118.6,35.6c0,0.1,0,0.2,0,0.3c0,0.4,0.1,0.7,0.3,1
		c0.2,0.3,0.4,0.6,0.8,0.8c0.3,0.2,0.7,0.3,1.1,0.3c0.4,0,0.7-0.1,1.1-0.3c0.3-0.2,0.6-0.4,0.8-0.8s0.3-0.7,0.3-1.2
		c0-0.2-0.1-0.5-0.2-0.8c-0.2-0.3-0.4-0.6-0.7-0.8c-0.3-0.2-0.7-0.4-1.2-0.4c-0.3,0-0.6,0.1-0.9,0.2c-0.3,0.1-0.6,0.3-0.8,0.6
		C118.9,34.9,118.7,35.2,118.6,35.6z"/>
	<path d="M127.8,38.7v-7.4h2c0.7,0,1.3,0.1,1.8,0.3s1,0.5,1.3,0.8s0.6,0.7,0.8,1.2s0.3,0.9,0.3,1.5c0,0.6-0.1,1.1-0.3,1.5
		c-0.2,0.5-0.5,0.8-0.9,1.2c-0.4,0.3-0.8,0.6-1.2,0.7c-0.5,0.2-0.9,0.2-1.4,0.2H127.8z M128.6,31.9V38h1.1c1,0,1.9-0.2,2.5-0.7
		s1-1.2,1.1-2.2c0-0.4-0.1-0.8-0.2-1.2c-0.1-0.4-0.4-0.7-0.6-1c-0.3-0.3-0.7-0.5-1.1-0.7s-1-0.3-1.5-0.3H128.6z"/>
	<path d="M135.2,32.6v-1.3h0.7v1.3H135.2z M135.2,38.7v-5.5h0.7v5.5H135.2z"/>
	<path d="M136.9,34.8c0-0.1,0-0.1,0-0.2c0-0.3,0.1-0.6,0.2-0.8s0.4-0.4,0.6-0.5c0.2-0.1,0.5-0.2,0.7-0.2c0.2,0,0.4,0,0.5,0.1
		c0.2,0.1,0.3,0.2,0.5,0.3c0.2,0.1,0.3,0.3,0.4,0.5c0.1,0.2,0.1,0.4,0.2,0.6h-0.7c0-0.3-0.1-0.5-0.3-0.6s-0.3-0.2-0.6-0.2
		c-0.2,0-0.4,0.1-0.5,0.2c-0.2,0.1-0.3,0.3-0.3,0.6c0,0,0,0,0,0.1c0,0.1,0,0.1,0,0.1c0,0.2,0.2,0.3,0.5,0.5s0.6,0.2,0.9,0.3
		s0.5,0.3,0.8,0.5c0.2,0.2,0.3,0.5,0.3,0.9c0,0.1,0,0.2,0,0.3c0,0.3-0.2,0.6-0.3,0.8c-0.2,0.2-0.4,0.4-0.6,0.5s-0.5,0.1-0.7,0.1
		c-0.3,0-0.6-0.1-0.9-0.2c-0.3-0.2-0.5-0.4-0.6-0.6c-0.1-0.3-0.2-0.6-0.2-0.9l0.7,0c0,0.3,0.1,0.6,0.3,0.8c0.2,0.2,0.4,0.3,0.7,0.3
		c0.3,0,0.5-0.1,0.7-0.3c0.2-0.2,0.3-0.4,0.3-0.6c0-0.2-0.1-0.4-0.2-0.6c-0.1-0.2-0.4-0.3-0.7-0.4c-0.4-0.1-0.8-0.3-1.1-0.5
		C137.1,35.5,137,35.2,136.9,34.8z"/>
	<path d="M140.8,35.9c0-0.4,0.1-0.8,0.3-1.2c0.2-0.3,0.4-0.6,0.6-0.9c0.3-0.2,0.6-0.4,0.9-0.6s0.7-0.2,1-0.2c0.5,0,0.9,0.1,1.4,0.3
		c0.4,0.2,0.8,0.6,1.1,1s0.4,1,0.4,1.6v0.1h-4.9c0,0.4,0.2,0.8,0.4,1c0.2,0.3,0.5,0.5,0.8,0.6c0.3,0.1,0.6,0.2,0.9,0.2
		c0.3,0,0.5-0.1,0.8-0.2c0.3-0.1,0.5-0.3,0.7-0.4c0.2-0.2,0.4-0.4,0.4-0.6h0.8c-0.2,0.4-0.4,0.8-0.7,1.1c-0.3,0.3-0.6,0.5-1,0.6
		c-0.4,0.1-0.7,0.2-1.1,0.2c-0.5,0-0.9-0.1-1.4-0.4s-0.8-0.6-1-1C141,37,140.8,36.5,140.8,35.9z M145.8,35.5
		c-0.1-0.3-0.2-0.6-0.4-0.9c-0.2-0.3-0.4-0.5-0.7-0.6c-0.3-0.2-0.6-0.2-1-0.2c-0.5,0-0.9,0.1-1.2,0.3c-0.3,0.2-0.5,0.5-0.7,0.7
		s-0.2,0.5-0.3,0.7H145.8z"/>
	<path d="M147.3,36c0-0.4,0.1-0.8,0.3-1.2c0.2-0.4,0.4-0.7,0.7-0.9s0.6-0.4,0.9-0.6c0.3-0.1,0.7-0.2,1.1-0.2c1,0,1.7,0.4,2.2,1.2
		v-1.1h0.7v5.5h-0.7v-1c-0.2,0.4-0.5,0.7-0.9,0.9c-0.4,0.2-0.8,0.3-1.3,0.3c-0.4,0-0.7-0.1-1.1-0.2c-0.3-0.1-0.7-0.3-0.9-0.6
		c-0.3-0.2-0.5-0.5-0.6-0.9C147.4,36.8,147.3,36.4,147.3,36z M148.1,35.8c0,0.4,0.1,0.8,0.3,1.2c0.2,0.3,0.5,0.6,0.8,0.8
		c0.3,0.2,0.7,0.3,1,0.3c0.4,0,0.8-0.1,1.1-0.3c0.3-0.2,0.6-0.5,0.8-0.8s0.3-0.7,0.3-1c0-0.4-0.1-0.7-0.3-1.1
		c-0.2-0.3-0.4-0.6-0.8-0.8c-0.3-0.2-0.7-0.3-1.1-0.3c-0.4,0-0.8,0.1-1.1,0.3c-0.3,0.2-0.6,0.5-0.8,0.8
		C148.2,35.2,148.1,35.5,148.1,35.8z"/>
	<path d="M154.1,34.8c0-0.1,0-0.1,0-0.2c0-0.3,0.1-0.6,0.2-0.8s0.4-0.4,0.6-0.5c0.2-0.1,0.5-0.2,0.7-0.2c0.2,0,0.4,0,0.5,0.1
		c0.2,0.1,0.3,0.2,0.5,0.3c0.2,0.1,0.3,0.3,0.4,0.5c0.1,0.2,0.1,0.4,0.2,0.6h-0.7c0-0.3-0.1-0.5-0.3-0.6s-0.3-0.2-0.6-0.2
		c-0.2,0-0.4,0.1-0.5,0.2c-0.2,0.1-0.3,0.3-0.3,0.6c0,0,0,0,0,0.1c0,0.1,0,0.1,0,0.1c0,0.2,0.2,0.3,0.5,0.5s0.6,0.2,0.9,0.3
		s0.5,0.3,0.8,0.5c0.2,0.2,0.3,0.5,0.3,0.9c0,0.1,0,0.2,0,0.3c0,0.3-0.2,0.6-0.3,0.8c-0.2,0.2-0.4,0.4-0.6,0.5s-0.5,0.1-0.7,0.1
		c-0.3,0-0.6-0.1-0.9-0.2c-0.3-0.2-0.5-0.4-0.6-0.6c-0.1-0.3-0.2-0.6-0.2-0.9l0.7,0c0,0.3,0.1,0.6,0.3,0.8c0.2,0.2,0.4,0.3,0.7,0.3
		c0.3,0,0.5-0.1,0.7-0.3c0.2-0.2,0.3-0.4,0.3-0.6c0-0.2-0.1-0.4-0.2-0.6c-0.1-0.2-0.4-0.3-0.7-0.4c-0.4-0.1-0.8-0.3-1.1-0.5
		C154.4,35.5,154.2,35.2,154.1,34.8z"/>
	<path d="M158.1,35.9c0-0.4,0.1-0.8,0.3-1.2c0.2-0.3,0.4-0.6,0.6-0.9c0.3-0.2,0.6-0.4,0.9-0.6s0.7-0.2,1-0.2c0.5,0,0.9,0.1,1.4,0.3
		c0.4,0.2,0.8,0.6,1.1,1s0.4,1,0.4,1.6v0.1h-4.9c0,0.4,0.2,0.8,0.4,1c0.2,0.3,0.5,0.5,0.8,0.6c0.3,0.1,0.6,0.2,0.9,0.2
		c0.3,0,0.5-0.1,0.8-0.2c0.3-0.1,0.5-0.3,0.7-0.4c0.2-0.2,0.4-0.4,0.4-0.6h0.8c-0.2,0.4-0.4,0.8-0.7,1.1c-0.3,0.3-0.6,0.5-1,0.6
		c-0.4,0.1-0.7,0.2-1.1,0.2c-0.5,0-0.9-0.1-1.4-0.4s-0.8-0.6-1-1C158.2,37,158.1,36.5,158.1,35.9z M163,35.5
		c-0.1-0.3-0.2-0.6-0.4-0.9c-0.2-0.3-0.4-0.5-0.7-0.6c-0.3-0.2-0.6-0.2-1-0.2c-0.5,0-0.9,0.1-1.2,0.3c-0.3,0.2-0.5,0.5-0.7,0.7
		s-0.2,0.5-0.3,0.7H163z"/>
	<path d="M167.7,38.7v-7.4h2c0.6,0,1.1,0.1,1.5,0.2c0.4,0.1,0.7,0.3,0.9,0.6c0.2,0.2,0.4,0.5,0.4,0.7s0.1,0.5,0.2,0.8
		c0,0.4-0.1,0.8-0.3,1.2c-0.2,0.4-0.4,0.6-0.8,0.9s-0.7,0.3-1.1,0.3l2.1,2.8h-0.9l-2.5-3.4h0.6c0.4,0,0.8-0.1,1.2-0.2
		c0.3-0.1,0.6-0.3,0.8-0.6s0.3-0.5,0.3-0.9c0-0.4-0.1-0.7-0.3-0.9c-0.2-0.3-0.4-0.5-0.8-0.6s-0.6-0.2-1-0.2h-1.5v6.7H167.7z"/>
	<path d="M173.4,35.9c0-0.4,0.1-0.8,0.3-1.2c0.2-0.3,0.4-0.6,0.6-0.9c0.3-0.2,0.6-0.4,0.9-0.6s0.7-0.2,1-0.2c0.5,0,0.9,0.1,1.4,0.3
		c0.4,0.2,0.8,0.6,1.1,1s0.4,1,0.4,1.6v0.1h-4.9c0,0.4,0.2,0.8,0.4,1c0.2,0.3,0.5,0.5,0.8,0.6c0.3,0.1,0.6,0.2,0.9,0.2
		c0.3,0,0.5-0.1,0.8-0.2c0.3-0.1,0.5-0.3,0.7-0.4c0.2-0.2,0.4-0.4,0.4-0.6h0.8c-0.2,0.4-0.4,0.8-0.7,1.1c-0.3,0.3-0.6,0.5-1,0.6
		c-0.4,0.1-0.7,0.2-1.1,0.2c-0.5,0-0.9-0.1-1.4-0.4s-0.8-0.6-1-1C173.5,37,173.4,36.5,173.4,35.9z M178.4,35.5
		c-0.1-0.3-0.2-0.6-0.4-0.9c-0.2-0.3-0.4-0.5-0.7-0.6c-0.3-0.2-0.6-0.2-1-0.2c-0.5,0-0.9,0.1-1.2,0.3c-0.3,0.2-0.5,0.5-0.7,0.7
		s-0.2,0.5-0.3,0.7H178.4z"/>
	<path d="M179.9,35.9c0-0.6,0.1-1.1,0.4-1.5c0.3-0.4,0.6-0.8,1-1c0.4-0.2,0.8-0.4,1.3-0.4c0.3,0,0.7,0,1,0.1
		c0.3,0.1,0.6,0.2,0.8,0.4s0.4,0.4,0.5,0.6v-1.1h0.7v5c0,0.4-0.1,0.8-0.2,1.1s-0.3,0.6-0.6,0.8c-0.3,0.2-0.5,0.4-0.9,0.5
		c-0.3,0.1-0.7,0.2-1,0.2c-0.3,0-0.6,0-0.9-0.1c-0.3-0.1-0.6-0.2-0.8-0.4s-0.5-0.4-0.7-0.6c-0.2-0.2-0.3-0.5-0.4-0.8h0.7
		c0.2,0.4,0.5,0.7,0.8,1c0.4,0.2,0.8,0.3,1.2,0.3c0.4,0,0.7-0.1,1-0.2c0.3-0.1,0.6-0.4,0.7-0.7c0.2-0.3,0.3-0.6,0.3-1v-0.6
		c-0.4,0.8-1.1,1.2-2.1,1.2c-0.3,0-0.7-0.1-1-0.2s-0.6-0.3-0.9-0.6c-0.3-0.2-0.5-0.6-0.7-0.9S179.9,36.4,179.9,35.9z M180.6,35.8
		c0,0.5,0.1,0.9,0.3,1.2c0.2,0.3,0.4,0.6,0.8,0.8c0.3,0.2,0.7,0.3,1.1,0.3c0.3,0,0.6-0.1,1-0.2c0.3-0.2,0.6-0.4,0.8-0.7
		c0.2-0.3,0.3-0.8,0.3-1.3c0-0.3-0.1-0.5-0.2-0.8s-0.3-0.5-0.5-0.7s-0.4-0.3-0.7-0.5c-0.3-0.1-0.6-0.2-0.9-0.2
		c-0.5,0-0.9,0.2-1.2,0.4c-0.3,0.3-0.5,0.5-0.6,0.9C180.7,35.4,180.6,35.6,180.6,35.8z"/>
	<path d="M186.8,32.6v-1.3h0.7v1.3H186.8z M186.8,38.7v-5.5h0.7v5.5H186.8z"/>
	<path d="M188.6,34.8c0-0.1,0-0.1,0-0.2c0-0.3,0.1-0.6,0.2-0.8s0.4-0.4,0.6-0.5c0.2-0.1,0.5-0.2,0.7-0.2c0.2,0,0.4,0,0.5,0.1
		c0.2,0.1,0.3,0.2,0.5,0.3c0.2,0.1,0.3,0.3,0.4,0.5c0.1,0.2,0.1,0.4,0.2,0.6h-0.7c0-0.3-0.1-0.5-0.3-0.6s-0.3-0.2-0.6-0.2
		c-0.2,0-0.4,0.1-0.5,0.2c-0.2,0.1-0.3,0.3-0.3,0.6c0,0,0,0,0,0.1c0,0.1,0,0.1,0,0.1c0,0.2,0.2,0.3,0.5,0.5s0.6,0.2,0.9,0.3
		s0.5,0.3,0.8,0.5c0.2,0.2,0.3,0.5,0.3,0.9c0,0.1,0,0.2,0,0.3c0,0.3-0.2,0.6-0.3,0.8c-0.2,0.2-0.4,0.4-0.6,0.5s-0.5,0.1-0.7,0.1
		c-0.3,0-0.6-0.1-0.9-0.2c-0.3-0.2-0.5-0.4-0.6-0.6c-0.1-0.3-0.2-0.6-0.2-0.9l0.7,0c0,0.3,0.1,0.6,0.3,0.8c0.2,0.2,0.4,0.3,0.7,0.3
		c0.3,0,0.5-0.1,0.7-0.3c0.2-0.2,0.3-0.4,0.3-0.6c0-0.2-0.1-0.4-0.2-0.6c-0.1-0.2-0.4-0.3-0.7-0.4c-0.4-0.1-0.8-0.3-1.1-0.5
		C188.8,35.5,188.6,35.2,188.6,34.8z"/>
	<path d="M193.4,38.7v-4.8h-1.2v-0.7h1.2v-1.9h0.7v1.9h1.3v0.7h-1.3v4.8H193.4z"/>
	<path d="M196.1,38.7v-5.5h0.7V34c0.3-0.6,0.8-0.9,1.6-0.9v0.7c-0.2,0-0.4,0-0.5,0.1s-0.4,0.2-0.5,0.3s-0.3,0.3-0.4,0.5
		s-0.1,0.4-0.1,0.6v3.4H196.1z"/>
	<path d="M200.7,38.5l-2.1-5.3h0.8l1.8,4.4l1.9-4.4h0.8l-3.2,7.4h-0.8L200.7,38.5z"/>
</g>
</svg>
