<?xml version="1.0" encoding="utf-8"?>
<!-- Generator: Adobe Illustrator 18.0.0, SVG Export Plug-In . SVG Version: 6.00 Build 0)  -->
<!DOCTYPE svg PUBLIC "-//W3C//DTD SVG 1.1//EN" "http://www.w3.org/Graphics/SVG/1.1/DTD/svg11.dtd">
<svg version="1.1" id="Layer_1" xmlns="http://www.w3.org/2000/svg" xmlns:xlink="http://www.w3.org/1999/xlink" x="0px" y="0px"
	 viewBox="0 0 670 89" enable-background="new 0 0 670 89" xml:space="preserve">
<path fill-rule="evenodd" clip-rule="evenodd" fill="#005DAA" d="M43.2,43c-1.4-6.5-1.8-7.6-2.6-12.6c-1,0.2-2.2,0.3-3.3,0.3
	c-0.9,0-1.5-0.1-2.7-0.3c-3.5,6.7-4.2,7.4-10.4,18.2L17,61c-4.7,8.1-9.6,16-14.5,24c1.5-0.2,3.1-0.4,4-0.4c1.4,0,2.5,0.2,3.5,0.4
	c2.7-5.6,5.6-11.2,8.7-16.6c3.4,0,6.8-0.1,10.1-0.1c2.9,0,5.9,0.1,8.8,0.1c1.4,5.4,2,11.1,2.4,16.6c2.1-0.2,5-0.4,6.6-0.4
	c2.2,0,4.3,0.3,6.5,0.4c-1.2-4-1.6-5.5-2.6-10.2l-2.1-9.3L43.2,43L43.2,43L43.2,43z M32.6,45l2.2,9.6l1.9,9.1
	c-2.8,0.1-5.6,0.1-8.4,0.1c-2.7,0-3.9,0-6.9-0.1L32.6,45L32.6,45L32.6,45z"/>
<path fill-rule="evenodd" clip-rule="evenodd" fill="#005DAA" d="M69.1,50.1l0.1-3.6c0.8,0,1.1-0.1,1.6-0.1c2.3,0,5.3,0.3,9.6,0.8
	c-0.2-1.1-0.2-1.5-0.2-2.3c0-1,0.1-1.8,0.2-3.2C74.7,42,68.9,42.3,63,42.3c-5,0-10-0.3-15-0.5c0.3,1.1,0.3,1.4,0.3,2.7
	c0,0.9-0.1,1.5-0.3,2.9c3.8-0.5,7.7-0.8,11.5-0.8c0.1,2.7,0.1,5.3,0.1,8l-0.1,10c-0.1,6.7-0.4,13.4-0.7,20.1c2-0.3,2.7-0.3,4.6-0.3
	c2.2,0,3.3,0.1,5.7,0.3c-0.3-6.7-0.4-17.1-0.4-19.9L69.1,50.1L69.1,50.1L69.1,50.1z"/>
<path fill-rule="evenodd" clip-rule="evenodd" fill="#005DAA" d="M101.7,50.3c0.8-3.2,1.1-4.3,2.1-6.1c-3.2-2.2-6.1-3-10.3-3
	c-8.6,0-14.2,5.1-14.2,12.9c0,13.8,18.6,12.1,18.6,21.2c0,3.6-3.2,6.4-7.4,6.4c-4.7,0-7.9-2.5-8.8-6.8h-1.3c-0.3,2.3-1,5.3-1.8,7.8
	c3.5,2,6.3,2.7,10.3,2.7c10.2,0,16.5-5.4,16.5-14c0-13.8-18.6-12.1-18.6-21c0-3.2,2.9-5.6,6.7-5.6c3.5,0,6.1,2,7.3,5.5H101.7
	L101.7,50.3L101.7,50.3z"/>
<path fill-rule="evenodd" clip-rule="evenodd" fill="#005DAA" d="M107.7,84.7c2.3-0.3,3.4-0.3,5.8-0.3c4,0,8,0.3,12,0.3
	c13.3,0,23.2-9,23.2-22.5c0-6.8-2.8-13.1-7.4-16.5c-3.7-2.8-8-3.8-16-3.8c-4.2,0-8.4,0.3-12.6,0.3c-1.8,0-2.6-0.1-4.9-0.3
	c0.4,7.8,0.6,10.7,0.6,19.9C108.3,62.4,108.3,73.5,107.7,84.7L107.7,84.7L107.7,84.7z M136.5,72.7c-2.5,5.7-6.9,8.3-14.3,8.3
	c-1.8,0-2.6-0.1-4.6-0.2c0-5.5-0.2-11-0.2-16.5c0-6.2,0-12.4,0.4-18.6c2.5-0.3,3.7-0.3,5.2-0.3c3.6,0,6.4,0.6,8.4,1.6
	c4.5,2.4,7.2,8.1,7.2,15.7C138.5,67,137.6,70.3,136.5,72.7L136.5,72.7L136.5,72.7z"/>
<path fill-rule="evenodd" clip-rule="evenodd" fill="#005DAA" d="M151.1,76.2c-0.1,2.9-0.2,4.4-0.6,8.4c2.2-0.3,3-0.3,4.9-0.3
	c2.2,0,3,0.1,5.2,0.5c-0.3-3.7-0.3-4.8-0.3-6.8l-0.1-6.4c0-2-0.1-3.9-0.1-5.8c0-0.5,0.2-0.8,0.4-0.8c0.2,0,0.3,0.1,0.7,0.9
	c3.7,6.2,7.4,12.5,10.7,18.9c2.2-0.1,3.1-0.2,5-0.2c2,0,3.2,0.1,6.3,0.2l-2.8-4.5l-5.6-8.7c-2.8-4.4-3.3-5.2-5-8.1
	c5.6-1.5,10.1-4.8,10.1-11.1c0-8.2-6.5-10.8-13.5-10.8c-3.3,0-6.7,0.3-10,0.3c-1.3,0-2.2-0.1-5.6-0.3c0.3,6.5,0.4,10.1,0.4,16.5
	C151.2,71.6,151.1,75.5,151.1,76.2L151.1,76.2L151.1,76.2z M160.1,62.3c0.2-5.6,0.1-11.3,0.2-16.9c1.1-0.1,1.5-0.1,2-0.1
	c5.3,0,7.7,2.5,7.7,7.9C170.1,59.9,166.5,62.3,160.1,62.3L160.1,62.3L160.1,62.3z"/>
<g>
	<path d="M193.8,69.6h1.6l6.4,14.8h-1.6l-2.2-5h-6.8l-2.1,5h-1.6L193.8,69.6z M194.7,71.3l-2.9,6.8h5.7L194.7,71.3z"/>
	<path d="M202.9,78.9c0-1.1,0.3-2.2,0.8-3s1.2-1.5,2.1-2c0.8-0.5,1.7-0.7,2.6-0.7c0.7,0,1.3,0.1,1.9,0.3s1.1,0.5,1.6,0.9
		c0.5,0.4,0.8,0.8,1,1.3v-2.2h1.4v10c0,0.8-0.1,1.6-0.4,2.2s-0.7,1.2-1.2,1.6c-0.5,0.4-1.1,0.8-1.7,1s-1.3,0.3-2,0.3
		c-0.6,0-1.2-0.1-1.8-0.3s-1.2-0.4-1.7-0.8s-0.9-0.7-1.3-1.2c-0.4-0.5-0.6-1.1-0.8-1.7h1.4c0.4,0.8,0.9,1.5,1.6,1.9s1.5,0.7,2.4,0.7
		c0.7,0,1.4-0.1,2-0.4s1.1-0.7,1.5-1.3s0.6-1.3,0.6-2v-1.2c-0.9,1.6-2.3,2.4-4.3,2.4c-0.7,0-1.4-0.1-2-0.4s-1.3-0.6-1.8-1.1
		c-0.6-0.5-1-1.1-1.3-1.8S202.9,79.8,202.9,78.9z M204.4,78.6c0,0.9,0.2,1.7,0.6,2.4s0.9,1.2,1.5,1.6c0.6,0.4,1.3,0.6,2.1,0.6
		c0.6,0,1.2-0.2,1.9-0.5s1.2-0.8,1.7-1.5c0.5-0.7,0.7-1.5,0.7-2.5c0-0.5-0.1-1-0.3-1.5c-0.2-0.5-0.5-0.9-0.9-1.3
		c-0.4-0.4-0.9-0.7-1.4-0.9c-0.5-0.2-1.1-0.3-1.7-0.3c-1,0-1.9,0.3-2.5,0.8s-1,1.1-1.2,1.7S204.4,78.2,204.4,78.6z"/>
	<path d="M216.4,78.8c0-0.9,0.2-1.7,0.5-2.4s0.8-1.3,1.3-1.8c0.5-0.5,1.1-0.9,1.8-1.1s1.3-0.4,2-0.4c0.9,0,1.8,0.2,2.7,0.7
		c0.9,0.5,1.6,1.1,2.2,2c0.6,0.9,0.8,2,0.8,3.3v0.3h-9.9c0.1,0.8,0.3,1.5,0.7,2.1c0.4,0.6,1,1,1.6,1.3s1.2,0.4,1.8,0.4
		c0.5,0,1.1-0.1,1.6-0.3s1-0.5,1.4-0.9c0.4-0.4,0.7-0.8,0.9-1.2h1.5c-0.3,0.8-0.8,1.5-1.3,2.1c-0.6,0.6-1.2,1-2,1.3
		c-0.7,0.3-1.5,0.4-2.2,0.4c-1,0-1.9-0.3-2.7-0.8c-0.8-0.5-1.5-1.2-2-2S216.4,80,216.4,78.8z M226.3,78.1c-0.1-0.6-0.4-1.2-0.8-1.8
		s-0.9-1-1.5-1.3c-0.6-0.3-1.3-0.5-2-0.5c-0.9,0-1.7,0.2-2.3,0.7c-0.6,0.4-1.1,0.9-1.4,1.5c-0.3,0.5-0.5,1-0.5,1.4H226.3z"/>
	<path d="M229.8,84.4V73.4h1.4v1.6c0.4-0.6,0.9-1.1,1.5-1.4s1.3-0.5,2-0.5c0.6,0,1.2,0.1,1.8,0.3s1.1,0.5,1.5,1s0.8,1,1.1,1.6
		s0.4,1.3,0.4,2.1v6.2H238v-6.2c0-0.8-0.2-1.4-0.5-1.9c-0.3-0.5-0.7-0.9-1.3-1.2s-1.1-0.4-1.7-0.4c-0.6,0-1.1,0.1-1.6,0.4
		c-0.5,0.3-0.9,0.6-1.2,1.1c-0.3,0.5-0.5,1.1-0.5,1.8v6.4H229.8z"/>
	<path d="M241.6,78.9c0-0.9,0.2-1.7,0.5-2.4s0.8-1.3,1.3-1.8s1.1-0.9,1.8-1.1c0.7-0.3,1.3-0.4,2-0.4c1.3,0,2.4,0.3,3.4,0.9
		c1,0.6,1.8,1.5,2.3,2.7h-1.7c-0.4-0.7-0.9-1.2-1.6-1.6s-1.5-0.5-2.4-0.5c-0.8,0.1-1.6,0.3-2.2,0.7c-0.6,0.4-1.1,0.9-1.4,1.6
		c-0.3,0.6-0.5,1.3-0.5,2c0,0.8,0.2,1.5,0.6,2.1s0.9,1.2,1.6,1.6s1.4,0.6,2.2,0.6c0.8,0,1.6-0.2,2.3-0.6c0.7-0.4,1.2-0.9,1.6-1.4
		h1.6c-1.2,2.3-3,3.4-5.5,3.4c-0.7,0-1.5-0.1-2.2-0.4c-0.7-0.3-1.3-0.7-1.9-1.2s-1-1.1-1.3-1.8S241.5,79.8,241.6,78.9
		C241.5,78.9,241.5,78.9,241.6,78.9C241.5,78.9,241.6,78.9,241.6,78.9z"/>
	<path d="M258,84l-4.2-10.6h1.6l3.5,8.7l3.7-8.7h1.6l-6.3,14.8h-1.6L258,84z"/>
	<path d="M271.9,84.4v-9.6h-1.7v-1.3h1.7c0-2.6,1.4-3.9,4.2-3.9V71c-0.8,0-1.5,0.2-2,0.5c-0.5,0.3-0.8,0.9-0.8,1.8
		c0,0.1,0,0.1,0,0.2h2.7v1.3h-2.7v9.6H271.9z"/>
	<path d="M277,78.7c0-0.7,0.2-1.4,0.5-2.1s0.7-1.3,1.2-1.8c0.5-0.5,1.1-0.9,1.9-1.2c0.7-0.3,1.5-0.4,2.3-0.4c0.8,0,1.6,0.2,2.5,0.7
		s1.5,1.1,2.1,1.9c0.6,0.8,0.9,1.7,1,2.6c0,0,0,0.1,0,0.2s0,0.2,0,0.2c0,0.8-0.2,1.6-0.5,2.3c-0.3,0.7-0.7,1.3-1.3,1.9
		c-0.5,0.5-1.2,0.9-1.9,1.2s-1.4,0.4-2.2,0.4c-0.9,0-1.8-0.2-2.7-0.7s-1.6-1.1-2.2-2C277.3,81,277,79.9,277,78.7z M278.4,78.8
		c0,0.9,0.2,1.6,0.6,2.3s0.9,1.2,1.6,1.5s1.4,0.6,2.1,0.6c0.6,0,1.3-0.2,1.9-0.5c0.6-0.3,1.2-0.9,1.6-1.5c0.4-0.7,0.6-1.5,0.6-2.4
		c0-0.5-0.1-1-0.3-1.5s-0.5-1-0.9-1.3s-0.8-0.7-1.4-0.9s-1-0.3-1.6-0.3c-0.7,0-1.4,0.2-2.1,0.6s-1.2,0.9-1.6,1.5
		S278.4,78,278.4,78.8z"/>
	<path d="M290.5,84.4v-11h1.4V75c0.6-1.3,1.7-1.9,3.2-1.9v1.5c-0.3,0-0.7,0.1-1.1,0.2s-0.7,0.4-1,0.6s-0.6,0.6-0.7,0.9
		s-0.3,0.8-0.3,1.2v6.8H290.5z"/>
	<path d="M304.3,84.4V70.9h-3.4v-1.3h8.2v1.3h-3.4v13.5H304.3z"/>
	<path d="M309.2,78.7c0-0.7,0.2-1.4,0.5-2.1s0.7-1.3,1.2-1.8c0.5-0.5,1.1-0.9,1.9-1.2c0.7-0.3,1.5-0.4,2.3-0.4
		c0.8,0,1.6,0.2,2.5,0.7s1.5,1.1,2.1,1.9c0.6,0.8,0.9,1.7,1,2.6c0,0,0,0.1,0,0.2s0,0.2,0,0.2c0,0.8-0.2,1.6-0.5,2.3
		c-0.3,0.7-0.7,1.3-1.3,1.9c-0.5,0.5-1.2,0.9-1.9,1.2s-1.4,0.4-2.2,0.4c-0.9,0-1.8-0.2-2.7-0.7s-1.6-1.1-2.2-2
		C309.5,81,309.2,79.9,309.2,78.7z M310.6,78.8c0,0.9,0.2,1.6,0.6,2.3s0.9,1.2,1.6,1.5s1.4,0.6,2.1,0.6c0.6,0,1.3-0.2,1.9-0.5
		c0.6-0.3,1.2-0.9,1.6-1.5c0.4-0.7,0.6-1.5,0.6-2.4c0-0.5-0.1-1-0.3-1.5s-0.5-1-0.9-1.3s-0.8-0.7-1.4-0.9s-1-0.3-1.6-0.3
		c-0.7,0-1.4,0.2-2.1,0.6s-1.2,0.9-1.6,1.5S310.6,78,310.6,78.8z"/>
	<path d="M321.6,84.4l3.7-5.6l-3.7-5.4h1.8l2.9,4.2l2.9-4.2h1.7l-3.8,5.4l3.8,5.5h-1.7l-2.9-4.4l-2.9,4.4H321.6z"/>
	<path d="M332.3,72.1v-2.5h1.5v2.5H332.3z M332.3,84.4V73.4h1.5v10.9H332.3z"/>
	<path d="M335.8,78.9c0-0.9,0.2-1.7,0.5-2.4c0.3-0.7,0.8-1.3,1.3-1.8c0.5-0.5,1.1-0.9,1.8-1.1c0.7-0.3,1.3-0.4,2-0.4
		c1.3,0,2.4,0.3,3.4,0.9c1,0.6,1.8,1.5,2.3,2.7h-1.7c-0.4-0.7-0.9-1.2-1.6-1.6s-1.5-0.5-2.4-0.5c-0.8,0.1-1.6,0.3-2.2,0.7
		c-0.6,0.4-1.1,0.9-1.4,1.6c-0.3,0.6-0.5,1.3-0.5,2c0,0.8,0.2,1.5,0.6,2.1c0.4,0.7,0.9,1.2,1.5,1.6s1.4,0.6,2.2,0.6
		c0.8,0,1.6-0.2,2.3-0.6c0.7-0.4,1.2-0.9,1.6-1.4h1.6c-1.2,2.3-3,3.4-5.5,3.4c-0.7,0-1.5-0.1-2.2-0.4c-0.7-0.3-1.3-0.7-1.9-1.2
		s-1-1.1-1.3-1.8C336,80.5,335.8,79.8,335.8,78.9C335.8,78.9,335.8,78.9,335.8,78.9C335.8,78.9,335.8,78.9,335.8,78.9z"/>
	<path d="M355.5,80.2c0,0.6,0.2,1.2,0.5,1.6c0.3,0.4,0.7,0.8,1.1,1s1,0.3,1.5,0.3c0.5,0,0.9-0.1,1.4-0.4s0.8-0.6,1.1-1
		c0.3-0.4,0.4-0.9,0.4-1.4c0-0.6-0.2-1.2-0.5-1.6c-0.3-0.5-0.8-0.8-1.6-1.1c-0.8-0.3-1.6-0.5-2.4-0.8c-0.8-0.3-1.4-0.6-1.9-1.2
		c-0.5-0.5-0.7-1.3-0.7-2.3c0,0,0-0.1,0-0.2c0-0.1,0-0.2,0-0.2c0-0.7,0.3-1.3,0.6-1.9c0.4-0.5,0.9-1,1.5-1.3
		c0.6-0.3,1.3-0.4,1.9-0.4c0.8,0,1.5,0.2,2.1,0.6c0.6,0.4,1.1,0.9,1.4,1.5s0.5,1.2,0.5,1.7v0.2h-1.5c-0.1-0.8-0.4-1.4-0.9-1.8
		c-0.5-0.4-1-0.6-1.7-0.7c-0.5,0-0.9,0.1-1.3,0.3s-0.7,0.5-1,0.8c-0.2,0.3-0.4,0.7-0.4,1.1c0,0.9,0.2,1.6,0.7,1.9
		c0.5,0.4,1.3,0.7,2.3,1c1.1,0.3,1.9,0.7,2.6,1.1c0.7,0.4,1.1,1.2,1.4,2.3c0.1,0.4,0.1,0.7,0.1,0.9c0,0.5-0.1,1-0.3,1.5
		c-0.2,0.5-0.5,1-0.8,1.4c-0.4,0.4-0.8,0.8-1.4,1c-0.6,0.3-1.2,0.4-1.9,0.4c-0.7,0-1.3-0.1-1.9-0.3c-0.6-0.2-1.1-0.5-1.5-0.9
		c-0.4-0.4-0.7-0.9-0.9-1.4c-0.2-0.5-0.3-1.1-0.3-1.7H355.5z"/>
	<path d="M364.7,80v-6.5h1.5v6.3c0,1.1,0.3,2,1,2.6s1.4,0.9,2.3,1c0.6,0,1.2-0.2,1.7-0.5c0.5-0.3,0.9-0.7,1.2-1.3s0.5-1.3,0.5-2.1
		v-6h1.5v10.9h-1.4v-1.7c-0.3,0.6-0.8,1.1-1.5,1.5s-1.4,0.5-2.1,0.5c-0.8,0-1.5-0.2-2.3-0.5s-1.3-0.9-1.7-1.6S364.7,80.9,364.7,80z"
		/>
	<path d="M376.8,84.4V69.6h1.5v5.9c0.4-0.7,0.9-1.2,1.7-1.6c0.8-0.4,1.6-0.7,2.5-0.7c1.1,0,2.1,0.3,3,0.8c0.9,0.5,1.6,1.2,2.1,2
		c0.5,0.8,0.8,1.7,0.8,2.5c0,1.1-0.2,2.1-0.7,3c-0.4,0.9-1.1,1.7-1.9,2.2c-0.8,0.6-1.8,0.9-3,0.9c-0.7,0-1.3-0.1-1.9-0.3
		s-1.1-0.4-1.6-0.7c-0.5-0.3-0.8-0.7-1.1-1.2v1.9H376.8z M378.2,78.6c0,0.6,0.1,1.2,0.3,1.8c0.2,0.5,0.4,1,0.8,1.5
		c0.4,0.4,0.8,0.8,1.4,1s1.3,0.4,2.1,0.4c0.7,0,1.4-0.2,2-0.6c0.6-0.4,1.1-0.9,1.5-1.6c0.4-0.7,0.6-1.5,0.6-2.3
		c0-0.6-0.1-1.1-0.4-1.6c-0.2-0.5-0.6-0.9-1-1.3c-0.4-0.4-0.9-0.7-1.4-0.9c-0.5-0.2-1.1-0.3-1.6-0.3c-0.6,0-1.2,0.2-1.9,0.5
		c-0.7,0.3-1.3,0.8-1.7,1.4C378.4,77,378.2,77.7,378.2,78.6z"/>
	<path d="M390,76.6c0-0.1,0-0.3,0-0.4c0-0.6,0.2-1.2,0.5-1.6c0.3-0.5,0.7-0.8,1.2-1s0.9-0.3,1.4-0.3c0.4,0,0.7,0.1,1.1,0.2
		c0.4,0.1,0.7,0.3,1,0.6c0.3,0.2,0.5,0.6,0.7,0.9s0.3,0.8,0.3,1.3h-1.5c0-0.5-0.2-0.9-0.5-1.2c-0.3-0.2-0.7-0.4-1.1-0.4
		c-0.4,0-0.8,0.1-1.1,0.4s-0.5,0.6-0.5,1.1c0,0,0,0.1,0.1,0.2c0,0.2,0.1,0.3,0.1,0.3c0.1,0.4,0.4,0.7,1,0.9c0.6,0.2,1.2,0.5,1.8,0.7
		c0.6,0.2,1.1,0.6,1.5,1s0.6,1,0.6,1.9c0,0.1,0,0.3,0,0.6c-0.1,0.7-0.3,1.2-0.7,1.7s-0.8,0.8-1.3,0.9c-0.5,0.2-1,0.3-1.5,0.3
		c-0.7,0-1.3-0.2-1.8-0.5s-0.9-0.7-1.2-1.2s-0.4-1.1-0.4-1.7l1.5,0c0,0.6,0.2,1.1,0.6,1.5c0.4,0.4,0.9,0.6,1.4,0.6
		c0.5,0,1-0.2,1.3-0.6c0.4-0.4,0.5-0.8,0.5-1.3c0-0.4-0.1-0.9-0.4-1.2c-0.3-0.4-0.7-0.6-1.4-0.8c-0.8-0.2-1.5-0.5-2.1-0.9
		S390,77.4,390,76.6z"/>
	<path d="M399.5,84.4v-9.6h-2.3v-1.3h2.3v-3.9h1.5v3.9h2.5v1.3H401v9.6H399.5z"/>
	<path d="M404.6,79c0-0.9,0.2-1.7,0.5-2.4s0.8-1.3,1.3-1.9c0.6-0.5,1.2-0.9,1.9-1.2c0.7-0.3,1.4-0.4,2.1-0.4c2,0,3.4,0.8,4.3,2.4
		v-2.1h1.4v10.9h-1.4v-2.1c-0.4,0.7-1,1.3-1.8,1.7c-0.8,0.4-1.7,0.6-2.6,0.6c-0.7,0-1.5-0.2-2.2-0.4c-0.7-0.3-1.3-0.6-1.8-1.1
		c-0.5-0.5-1-1.1-1.3-1.8S404.6,79.8,404.6,79z M406.1,78.6c0,0.9,0.2,1.7,0.6,2.4c0.4,0.7,0.9,1.2,1.6,1.6s1.3,0.6,2.1,0.6
		c0.8,0,1.6-0.2,2.3-0.6c0.7-0.4,1.2-0.9,1.6-1.6c0.4-0.7,0.6-1.3,0.6-2c0-0.8-0.2-1.5-0.6-2.1s-0.9-1.2-1.5-1.6
		c-0.7-0.4-1.4-0.6-2.1-0.6c-0.8,0-1.6,0.2-2.3,0.6s-1.2,0.9-1.6,1.6S406.1,78.1,406.1,78.6z"/>
	<path d="M418.7,84.4V73.4h1.4v1.6c0.4-0.6,0.9-1.1,1.5-1.4s1.3-0.5,2-0.5c0.6,0,1.2,0.1,1.8,0.3s1.1,0.5,1.5,1s0.8,1,1.1,1.6
		c0.3,0.6,0.4,1.3,0.4,2.1v6.2h-1.4v-6.2c0-0.8-0.2-1.4-0.5-1.9c-0.3-0.5-0.7-0.9-1.3-1.2c-0.5-0.3-1.1-0.4-1.7-0.4
		c-0.6,0-1.1,0.1-1.6,0.4c-0.5,0.3-0.9,0.6-1.2,1.1c-0.3,0.5-0.5,1.1-0.5,1.8v6.4H418.7z"/>
	<path d="M430.5,78.9c0-0.9,0.2-1.7,0.5-2.4c0.3-0.7,0.8-1.3,1.3-1.8c0.5-0.5,1.1-0.9,1.8-1.1c0.7-0.3,1.3-0.4,2-0.4
		c1.3,0,2.4,0.3,3.4,0.9c1,0.6,1.8,1.5,2.3,2.7h-1.7c-0.4-0.7-0.9-1.2-1.6-1.6s-1.5-0.5-2.4-0.5c-0.8,0.1-1.6,0.3-2.2,0.7
		c-0.6,0.4-1.1,0.9-1.4,1.6c-0.3,0.6-0.5,1.3-0.5,2c0,0.8,0.2,1.5,0.6,2.1c0.4,0.7,0.9,1.2,1.5,1.6s1.4,0.6,2.2,0.6
		c0.8,0,1.6-0.2,2.3-0.6c0.7-0.4,1.2-0.9,1.6-1.4h1.6c-1.2,2.3-3,3.4-5.5,3.4c-0.7,0-1.5-0.1-2.2-0.4c-0.7-0.3-1.3-0.7-1.9-1.2
		s-1-1.1-1.3-1.8S430.4,79.8,430.5,78.9C430.5,78.9,430.5,78.9,430.5,78.9C430.5,78.9,430.5,78.9,430.5,78.9z"/>
	<path d="M443.4,78.8c0-0.9,0.2-1.7,0.5-2.4c0.3-0.7,0.8-1.3,1.3-1.8c0.5-0.5,1.1-0.9,1.8-1.1c0.7-0.3,1.3-0.4,2-0.4
		c0.9,0,1.8,0.2,2.7,0.7c0.9,0.5,1.6,1.1,2.2,2c0.6,0.9,0.8,2,0.8,3.3v0.3h-9.9c0.1,0.8,0.3,1.5,0.7,2.1c0.4,0.6,1,1,1.6,1.3
		c0.6,0.3,1.2,0.4,1.8,0.4c0.5,0,1.1-0.1,1.6-0.3s1-0.5,1.4-0.9c0.4-0.4,0.7-0.8,0.9-1.2h1.5c-0.3,0.8-0.8,1.5-1.3,2.1
		c-0.6,0.6-1.2,1-2,1.3c-0.7,0.3-1.5,0.4-2.2,0.4c-1,0-1.9-0.3-2.7-0.8c-0.8-0.5-1.5-1.2-2-2C443.6,81,443.4,80,443.4,78.8z
		 M453.3,78.1c-0.1-0.6-0.4-1.2-0.8-1.8c-0.4-0.5-0.9-1-1.5-1.3c-0.6-0.3-1.3-0.5-2-0.5c-0.9,0-1.7,0.2-2.3,0.7
		c-0.6,0.4-1.1,0.9-1.4,1.5c-0.3,0.5-0.5,1-0.5,1.4H453.3z"/>
	<path d="M456.3,76.6c0-0.1,0-0.3,0-0.4c0-0.6,0.2-1.2,0.5-1.6c0.3-0.5,0.7-0.8,1.2-1s0.9-0.3,1.4-0.3c0.4,0,0.7,0.1,1.1,0.2
		c0.4,0.1,0.7,0.3,1,0.6c0.3,0.2,0.5,0.6,0.7,0.9s0.3,0.8,0.3,1.3H461c0-0.5-0.2-0.9-0.5-1.2c-0.3-0.2-0.7-0.4-1.1-0.4
		c-0.4,0-0.8,0.1-1.1,0.4s-0.5,0.6-0.5,1.1c0,0,0,0.1,0.1,0.2c0,0.2,0.1,0.3,0.1,0.3c0.1,0.4,0.4,0.7,1,0.9c0.6,0.2,1.2,0.5,1.8,0.7
		c0.6,0.2,1.1,0.6,1.5,1s0.6,1,0.6,1.9c0,0.1,0,0.3,0,0.6c-0.1,0.7-0.3,1.2-0.7,1.7s-0.8,0.8-1.3,0.9c-0.5,0.2-1,0.3-1.5,0.3
		c-0.7,0-1.3-0.2-1.8-0.5s-0.9-0.7-1.2-1.2s-0.4-1.1-0.4-1.7l1.5,0c0,0.6,0.2,1.1,0.6,1.5c0.4,0.4,0.9,0.6,1.4,0.6
		c0.5,0,1-0.2,1.3-0.6c0.4-0.4,0.5-0.8,0.5-1.3c0-0.4-0.1-0.9-0.4-1.2c-0.3-0.4-0.7-0.6-1.4-0.8c-0.8-0.2-1.5-0.5-2.1-0.9
		S456.4,77.4,456.3,76.6z"/>
	<path d="M469.7,79c0-0.9,0.2-1.7,0.5-2.4s0.8-1.3,1.3-1.9c0.6-0.5,1.2-0.9,1.9-1.2c0.7-0.3,1.4-0.4,2.1-0.4c2,0,3.4,0.8,4.3,2.4
		v-2.1h1.4v10.9h-1.4v-2.1c-0.4,0.7-1,1.3-1.8,1.7c-0.8,0.4-1.7,0.6-2.6,0.6c-0.7,0-1.5-0.2-2.2-0.4c-0.7-0.3-1.3-0.6-1.8-1.1
		c-0.5-0.5-1-1.1-1.3-1.8S469.7,79.8,469.7,79z M471.2,78.6c0,0.9,0.2,1.7,0.6,2.4c0.4,0.7,0.9,1.2,1.6,1.6s1.3,0.6,2.1,0.6
		c0.8,0,1.6-0.2,2.3-0.6c0.7-0.4,1.2-0.9,1.6-1.6c0.4-0.7,0.6-1.3,0.6-2c0-0.8-0.2-1.5-0.6-2.1s-0.9-1.2-1.5-1.6
		c-0.7-0.4-1.4-0.6-2.1-0.6c-0.8,0-1.6,0.2-2.3,0.6s-1.2,0.9-1.6,1.6S471.2,78.1,471.2,78.6z"/>
	<path d="M483.8,84.4V73.4h1.4v1.6c0.4-0.6,0.9-1.1,1.5-1.4s1.3-0.5,2-0.5c0.6,0,1.2,0.1,1.8,0.3s1.1,0.5,1.5,1s0.8,1,1.1,1.6
		c0.3,0.6,0.4,1.3,0.4,2.1v6.2H492v-6.2c0-0.8-0.2-1.4-0.5-1.9c-0.3-0.5-0.7-0.9-1.3-1.2c-0.5-0.3-1.1-0.4-1.7-0.4
		c-0.6,0-1.1,0.1-1.6,0.4c-0.5,0.3-0.9,0.6-1.2,1.1c-0.3,0.5-0.5,1.1-0.5,1.8v6.4H483.8z"/>
	<path d="M495.6,78.4c0.1-1,0.4-1.9,1-2.7c0.6-0.8,1.2-1.4,2.1-1.8c0.8-0.4,1.7-0.7,2.6-0.7c0.9,0,1.8,0.2,2.6,0.5s1.5,0.9,2,1.7
		v-5.8h1.5v14.8h-1.4v-2.1c-0.5,0.8-1.1,1.4-1.9,1.7c-0.7,0.4-1.6,0.6-2.7,0.6c-0.9,0-1.8-0.3-2.7-0.8c-0.9-0.5-1.6-1.2-2.2-2
		c-0.6-0.9-0.8-1.8-0.8-2.9C495.6,78.7,495.6,78.5,495.6,78.4z M497.1,78.3c0,0.1,0,0.3,0,0.6c0,0.7,0.2,1.4,0.6,2.1
		s0.9,1.2,1.5,1.6c0.7,0.4,1.4,0.6,2.2,0.6c0.7,0,1.4-0.2,2.1-0.5c0.7-0.4,1.2-0.9,1.7-1.6c0.4-0.7,0.6-1.5,0.6-2.4
		c0-0.5-0.2-1-0.5-1.7c-0.3-0.7-0.8-1.2-1.5-1.7c-0.7-0.5-1.5-0.7-2.5-0.7c-0.5,0-1.1,0.1-1.7,0.4c-0.6,0.2-1.1,0.6-1.6,1.2
		C497.6,76.7,497.2,77.4,497.1,78.3z"/>
	<path d="M515.5,84.4V69.6h4c1.4,0,2.6,0.2,3.7,0.6c1.1,0.4,2,0.9,2.7,1.6c0.7,0.7,1.2,1.5,1.6,2.4c0.4,0.9,0.5,1.9,0.5,2.9
		c0,1.1-0.2,2.1-0.7,3c-0.4,0.9-1,1.7-1.7,2.3c-0.7,0.6-1.6,1.1-2.5,1.4c-0.9,0.3-1.9,0.5-2.8,0.5H515.5z M517,70.9V83h2.3
		c2.1,0,3.7-0.5,5.1-1.4c1.3-1,2.1-2.4,2.2-4.5c0-0.8-0.1-1.6-0.4-2.4c-0.3-0.7-0.7-1.4-1.3-2c-0.6-0.6-1.3-1-2.2-1.4
		c-0.9-0.3-1.9-0.5-3.1-0.5H517z"/>
	<path d="M530.1,72.1v-2.5h1.5v2.5H530.1z M530.1,84.4V73.4h1.5v10.9H530.1z"/>
	<path d="M533.6,76.6c0-0.1,0-0.3,0-0.4c0-0.6,0.2-1.2,0.5-1.6c0.3-0.5,0.7-0.8,1.2-1s0.9-0.3,1.4-0.3c0.4,0,0.7,0.1,1.1,0.2
		c0.4,0.1,0.7,0.3,1,0.6c0.3,0.2,0.5,0.6,0.7,0.9s0.3,0.8,0.3,1.3h-1.5c0-0.5-0.2-0.9-0.5-1.2c-0.3-0.2-0.7-0.4-1.1-0.4
		c-0.4,0-0.8,0.1-1.1,0.4s-0.5,0.6-0.5,1.1c0,0,0,0.1,0.1,0.2c0,0.2,0.1,0.3,0.1,0.3c0.1,0.4,0.4,0.7,1,0.9c0.6,0.2,1.2,0.5,1.8,0.7
		c0.6,0.2,1.1,0.6,1.5,1s0.6,1,0.6,1.9c0,0.1,0,0.3,0,0.6c-0.1,0.7-0.3,1.2-0.7,1.7s-0.8,0.8-1.3,0.9c-0.5,0.2-1,0.3-1.5,0.3
		c-0.7,0-1.3-0.2-1.8-0.5s-0.9-0.7-1.2-1.2s-0.4-1.1-0.4-1.7l1.5,0c0,0.6,0.2,1.1,0.6,1.5c0.4,0.4,0.9,0.6,1.4,0.6
		c0.5,0,1-0.2,1.3-0.6c0.4-0.4,0.5-0.8,0.5-1.3c0-0.4-0.1-0.9-0.4-1.2c-0.3-0.4-0.7-0.6-1.4-0.8c-0.8-0.2-1.5-0.5-2.1-0.9
		S533.7,77.4,533.6,76.6z"/>
	<path d="M541.5,78.8c0-0.9,0.2-1.7,0.5-2.4c0.3-0.7,0.8-1.3,1.3-1.8c0.5-0.5,1.1-0.9,1.8-1.1c0.7-0.3,1.3-0.4,2-0.4
		c0.9,0,1.8,0.2,2.7,0.7c0.9,0.5,1.6,1.1,2.2,2c0.6,0.9,0.8,2,0.8,3.3v0.3h-9.9c0.1,0.8,0.3,1.5,0.7,2.1c0.4,0.6,1,1,1.6,1.3
		c0.6,0.3,1.2,0.4,1.8,0.4c0.5,0,1.1-0.1,1.6-0.3s1-0.5,1.4-0.9c0.4-0.4,0.7-0.8,0.9-1.2h1.5c-0.3,0.8-0.8,1.5-1.3,2.1
		c-0.6,0.6-1.2,1-2,1.3c-0.7,0.3-1.5,0.4-2.2,0.4c-1,0-1.9-0.3-2.7-0.8c-0.8-0.5-1.5-1.2-2-2C541.7,81,541.5,80,541.5,78.8z
		 M551.4,78.1c-0.1-0.6-0.4-1.2-0.8-1.8c-0.4-0.5-0.9-1-1.5-1.3c-0.6-0.3-1.3-0.5-2-0.5c-0.9,0-1.7,0.2-2.3,0.7
		c-0.6,0.4-1.1,0.9-1.4,1.5c-0.3,0.5-0.5,1-0.5,1.4H551.4z"/>
	<path d="M554.4,79c0-0.9,0.2-1.7,0.5-2.4s0.8-1.3,1.3-1.9c0.6-0.5,1.2-0.9,1.9-1.2c0.7-0.3,1.4-0.4,2.1-0.4c2,0,3.4,0.8,4.3,2.4
		v-2.1h1.4v10.9h-1.4v-2.1c-0.4,0.7-1,1.3-1.8,1.7c-0.8,0.4-1.7,0.6-2.6,0.6c-0.7,0-1.5-0.2-2.2-0.4c-0.7-0.3-1.3-0.6-1.8-1.1
		c-0.5-0.5-1-1.1-1.3-1.8S554.4,79.8,554.4,79z M555.9,78.6c0,0.9,0.2,1.7,0.6,2.4c0.4,0.7,0.9,1.2,1.6,1.6s1.3,0.6,2.1,0.6
		c0.8,0,1.6-0.2,2.3-0.6c0.7-0.4,1.2-0.9,1.6-1.6c0.4-0.7,0.6-1.3,0.6-2c0-0.8-0.2-1.5-0.6-2.1s-0.9-1.2-1.5-1.6
		c-0.7-0.4-1.4-0.6-2.1-0.6c-0.8,0-1.6,0.2-2.3,0.6s-1.2,0.9-1.6,1.6S555.9,78.1,555.9,78.6z"/>
	<path d="M568.1,76.6c0-0.1,0-0.3,0-0.4c0-0.6,0.2-1.2,0.5-1.6c0.3-0.5,0.7-0.8,1.2-1s0.9-0.3,1.4-0.3c0.4,0,0.7,0.1,1.1,0.2
		c0.4,0.1,0.7,0.3,1,0.6c0.3,0.2,0.5,0.6,0.7,0.9s0.3,0.8,0.3,1.3h-1.5c0-0.5-0.2-0.9-0.5-1.2c-0.3-0.2-0.7-0.4-1.1-0.4
		c-0.4,0-0.8,0.1-1.1,0.4s-0.5,0.6-0.5,1.1c0,0,0,0.1,0.1,0.2c0,0.2,0.1,0.3,0.1,0.3c0.1,0.4,0.4,0.7,1,0.9c0.6,0.2,1.2,0.5,1.8,0.7
		c0.6,0.2,1.1,0.6,1.5,1s0.6,1,0.6,1.9c0,0.1,0,0.3,0,0.6c-0.1,0.7-0.3,1.2-0.7,1.7s-0.8,0.8-1.3,0.9c-0.5,0.2-1,0.3-1.5,0.3
		c-0.7,0-1.3-0.2-1.8-0.5s-0.9-0.7-1.2-1.2s-0.4-1.1-0.4-1.7l1.5,0c0,0.6,0.2,1.1,0.6,1.5c0.4,0.4,0.9,0.6,1.4,0.6
		c0.5,0,1-0.2,1.3-0.6c0.4-0.4,0.5-0.8,0.5-1.3c0-0.4-0.1-0.9-0.4-1.2c-0.3-0.4-0.7-0.6-1.4-0.8c-0.8-0.2-1.5-0.5-2.1-0.9
		S568.2,77.4,568.1,76.6z"/>
	<path d="M575.9,78.8c0-0.9,0.2-1.7,0.5-2.4c0.3-0.7,0.8-1.3,1.3-1.8c0.5-0.5,1.1-0.9,1.8-1.1c0.7-0.3,1.3-0.4,2-0.4
		c0.9,0,1.8,0.2,2.7,0.7c0.9,0.5,1.6,1.1,2.2,2c0.6,0.9,0.8,2,0.8,3.3v0.3h-9.9c0.1,0.8,0.3,1.5,0.7,2.1c0.4,0.6,1,1,1.6,1.3
		c0.6,0.3,1.2,0.4,1.8,0.4c0.5,0,1.1-0.1,1.6-0.3s1-0.5,1.4-0.9c0.4-0.4,0.7-0.8,0.9-1.2h1.5c-0.3,0.8-0.8,1.5-1.3,2.1
		c-0.6,0.6-1.2,1-2,1.3c-0.7,0.3-1.5,0.4-2.2,0.4c-1,0-1.9-0.3-2.7-0.8c-0.8-0.5-1.5-1.2-2-2C576.2,81,575.9,80,575.9,78.8z
		 M585.8,78.1c-0.1-0.6-0.4-1.2-0.8-1.8c-0.4-0.5-0.9-1-1.5-1.3c-0.6-0.3-1.3-0.5-2-0.5c-0.9,0-1.7,0.2-2.3,0.7
		c-0.6,0.4-1.1,0.9-1.4,1.5c-0.3,0.5-0.5,1-0.5,1.4H585.8z"/>
	<path d="M595.1,84.4V69.6h4c1.2,0,2.2,0.1,3,0.4c0.8,0.3,1.4,0.7,1.8,1.1c0.4,0.5,0.7,0.9,0.9,1.4c0.2,0.5,0.3,1,0.3,1.6
		c0,0.8-0.2,1.6-0.6,2.3c-0.4,0.7-0.9,1.3-1.6,1.7c-0.7,0.4-1.4,0.6-2.3,0.6l4.2,5.5h-1.9l-5-6.7h1.2c0.9,0,1.7-0.1,2.3-0.4
		c0.7-0.3,1.2-0.6,1.5-1.1c0.4-0.5,0.5-1.1,0.5-1.8c0-0.7-0.2-1.3-0.6-1.8s-0.9-0.9-1.5-1.2s-1.3-0.4-2-0.4h-3v13.4H595.1z"/>
	<path d="M606.6,78.8c0-0.9,0.2-1.7,0.5-2.4c0.3-0.7,0.8-1.3,1.3-1.8c0.5-0.5,1.1-0.9,1.8-1.1c0.7-0.3,1.3-0.4,2-0.4
		c0.9,0,1.8,0.2,2.7,0.7c0.9,0.5,1.6,1.1,2.2,2c0.6,0.9,0.8,2,0.8,3.3v0.3h-9.9c0.1,0.8,0.3,1.5,0.7,2.1c0.4,0.6,1,1,1.6,1.3
		c0.6,0.3,1.2,0.4,1.8,0.4c0.5,0,1.1-0.1,1.6-0.3s1-0.5,1.4-0.9c0.4-0.4,0.7-0.8,0.9-1.2h1.5c-0.3,0.8-0.8,1.5-1.3,2.1
		c-0.6,0.6-1.2,1-2,1.3c-0.7,0.3-1.5,0.4-2.2,0.4c-1,0-1.9-0.3-2.7-0.8c-0.8-0.5-1.5-1.2-2-2C606.9,81,606.6,80,606.6,78.8z
		 M616.5,78.1c-0.1-0.6-0.4-1.2-0.8-1.8c-0.4-0.5-0.9-1-1.5-1.3c-0.6-0.3-1.3-0.5-2-0.5c-0.9,0-1.7,0.2-2.3,0.7
		c-0.6,0.4-1.1,0.9-1.4,1.5c-0.3,0.5-0.5,1-0.5,1.4H616.5z"/>
	<path d="M619.6,78.9c0-1.1,0.3-2.2,0.8-3c0.5-0.9,1.2-1.5,2.1-2c0.8-0.5,1.7-0.7,2.6-0.7c0.7,0,1.3,0.1,1.9,0.3
		c0.6,0.2,1.1,0.5,1.6,0.9c0.5,0.4,0.8,0.8,1,1.3v-2.2h1.4v10c0,0.8-0.1,1.6-0.4,2.2c-0.3,0.6-0.7,1.2-1.2,1.6
		c-0.5,0.4-1.1,0.8-1.7,1c-0.6,0.2-1.3,0.3-2,0.3c-0.6,0-1.2-0.1-1.8-0.3s-1.2-0.4-1.7-0.8s-0.9-0.7-1.3-1.2
		c-0.4-0.5-0.6-1.1-0.8-1.7h1.4c0.4,0.8,0.9,1.5,1.6,1.9c0.7,0.4,1.5,0.7,2.4,0.7c0.7,0,1.4-0.1,2-0.4c0.6-0.3,1.1-0.7,1.5-1.3
		c0.4-0.6,0.6-1.3,0.6-2v-1.2c-0.9,1.6-2.3,2.4-4.3,2.4c-0.7,0-1.4-0.1-2-0.4c-0.7-0.3-1.3-0.6-1.8-1.1c-0.5-0.5-1-1.1-1.3-1.8
		S619.6,79.8,619.6,78.9z M621.1,78.6c0,0.9,0.2,1.7,0.6,2.4c0.4,0.7,0.9,1.2,1.5,1.6c0.6,0.4,1.3,0.6,2.1,0.6
		c0.6,0,1.2-0.2,1.9-0.5c0.7-0.3,1.2-0.8,1.7-1.5c0.5-0.7,0.7-1.5,0.7-2.5c0-0.5-0.1-1-0.3-1.5c-0.2-0.5-0.5-0.9-0.9-1.3
		c-0.4-0.4-0.9-0.7-1.4-0.9c-0.5-0.2-1.1-0.3-1.7-0.3c-1,0-1.9,0.3-2.5,0.8c-0.6,0.5-1,1.1-1.2,1.7S621.1,78.2,621.1,78.6z"/>
	<path d="M633.5,72.1v-2.5h1.5v2.5H633.5z M633.5,84.4V73.4h1.5v10.9H633.5z"/>
	<path d="M637,76.6c0-0.1,0-0.3,0-0.4c0-0.6,0.2-1.2,0.5-1.6c0.3-0.5,0.7-0.8,1.2-1s0.9-0.3,1.4-0.3c0.4,0,0.7,0.1,1.1,0.2
		c0.4,0.1,0.7,0.3,1,0.6c0.3,0.2,0.5,0.6,0.7,0.9s0.3,0.8,0.3,1.3h-1.5c0-0.5-0.2-0.9-0.5-1.2c-0.3-0.2-0.7-0.4-1.1-0.4
		c-0.4,0-0.8,0.1-1.1,0.4s-0.5,0.6-0.5,1.1c0,0,0,0.1,0.1,0.2c0,0.2,0.1,0.3,0.1,0.3c0.1,0.4,0.4,0.7,1,0.9c0.6,0.2,1.2,0.5,1.8,0.7
		c0.6,0.2,1.1,0.6,1.5,1s0.6,1,0.6,1.9c0,0.1,0,0.3,0,0.6c-0.1,0.7-0.3,1.2-0.7,1.7s-0.8,0.8-1.3,0.9c-0.5,0.2-1,0.3-1.5,0.3
		c-0.7,0-1.3-0.2-1.8-0.5s-0.9-0.7-1.2-1.2s-0.4-1.1-0.4-1.7l1.5,0c0,0.6,0.2,1.1,0.6,1.5c0.4,0.4,0.9,0.6,1.4,0.6
		c0.5,0,1-0.2,1.3-0.6c0.4-0.4,0.5-0.8,0.5-1.3c0-0.4-0.1-0.9-0.4-1.2c-0.3-0.4-0.7-0.6-1.4-0.8c-0.8-0.2-1.5-0.5-2.1-0.9
		S637.1,77.4,637,76.6z"/>
	<path d="M646.5,84.4v-9.6h-2.3v-1.3h2.3v-3.9h1.5v3.9h2.5v1.3H648v9.6H646.5z"/>
	<path d="M652.1,84.4v-11h1.4V75c0.6-1.3,1.7-1.9,3.2-1.9v1.5c-0.3,0-0.7,0.1-1.1,0.2s-0.7,0.4-1,0.6c-0.3,0.3-0.6,0.6-0.7,0.9
		s-0.3,0.8-0.3,1.2v6.8H652.1z"/>
	<path d="M661.2,84L657,73.4h1.6l3.5,8.7l3.7-8.7h1.6L661,88.2h-1.6L661.2,84z"/>
</g>
</svg>
